<?xml version="1.0" encoding="UTF-8"?>
<svg
   xmlns:svg="http://www.w3.org/2000/svg"
   xmlns="http://www.w3.org/2000/svg"
   xmlns:xlink="http://www.w3.org/1999/xlink"
   version="1.1" width="1650" height="2350"
   viewBox="0 0 1650 2350"
   font-family="Arial, sans-serif">
  
  <title>Standard Model of Elementary Particles + Gravity</title>
  
  <desc>Basic tiles are 240x240px usually spaced 250px apart.</desc>
  
  <metadata>
    <rdf:RDF xmlns:dc="http://purl.org/dc/elements/1.1/"
      xmlns:cc="http://creativecommons.org/ns#"
      xmlns:rdf="http://www.w3.org/1999/02/22-rdf-syntax-ns#">
      <cc:Work rdf:about="">
        <dc:format>image/svg+xml</dc:format>
        <dc:type rdf:resource="http://purl.org/dc/dcmitype/StillImage" />
        <dc:creator rdf:resource="https://commons.wikimedia.org/wiki/User:MissMJ" />
        <dc:publisher>Wikimedia Commons</dc:publisher>
        <cc:license rdf:resource="https://creativecommons.org/licenses/by/3.0/deed.en" />
        <cc:attributionURL rdf:resource="https://commons.wikimedia.org/w/index.php?title=File:Standard_Model_of_Elementary_Particles.svg" />
        <cc:attributionName rdf:resource="https://commons.wikimedia.org/wiki/User:MissMJ" />
      </cc:Work>
    </rdf:RDF>
  </metadata>
  
  <style type="text/css" id="style9578">    
	.head1 {text-anchor: middle; font-size: 64px; font-weight: bold; }

	.pmass {font-size:24px; fill:#1a1a1a; }
	.pchar {font-size:24px; fill:#1a1a1a; }
	.pspin {font-size:24px; fill:#1a1a1a; }

	.psymr {font-size:64px; text-anchor:middle; }
	.psymg {font-size:72px; text-anchor:middle; font-family:Times New Roman, serif;}
	.sub {font-size:48px; baseline-shift:-8px;}

	.pname {font-size:42px; font-weight:bold; text-anchor:middle; fill:#001122; }
	.pnam2 {font-size:36px; font-weight:bold; text-anchor:middle; fill:#001122; }
    
	.st0 {fill-opacity:0.04;fill:#E6CC01;stroke:#772222;stroke-miterlimit:10;stroke-opacity:0.15;} /* force indications */
	.st1 {opacity:0.25;fill:#FFFFFF;} /* ball background fill */
	.st2 {opacity:0.5;fill:#CCDDFF;} /* 3 generation box fill */

	.st3 {fill:url(#lgb_quark);} /* quark box */
	.st9 {fill:url(#lgb_lepton);} /* lepton box */
	.st15 {fill:url(#lgb_gauge);} /* gauge boson box */
	.st19 {fill:url(#lgb_scalar);} /* scalar boson box */
	.st21 {fill:url(#lgb_tensor);} /* tensor boson box */

	.st20 {fill:url(#lgp_quark);} /* quark ball */
	.st26 {fill:url(#lgp_lepton);} /* lepton ball */
	.st32 {fill:url(#lgp_gauge);} /* gauge boson ball */
	.st36 {fill:url(#lgp_scalar);} /* scalar boson ball */
	.st37 {fill:url(#lgp_tensor);} /* tensor boson ball */

	.st39 {opacity:0.65;} /* density for mass, charge, and spin */
	.st41 {fill:#112233; font-size:40px; text-anchor:middle;} /* color for generation I II III */

	.st42 {fill:#55CC22; font-size:54px; font-weight:bold;} /* color for leptons */
	.st43 {fill:#CC99FF; font-size:54px; font-weight:bold;} /* color for quarks */
	.st44 {fill:#FF6C6C; font-size:54px; font-weight:bold;} /* color for gauge bosons */
	.st44b{fill:#FF6C6C; font-size:36px; font-weight:bold;} /* color for vector bosons */
	.st45 {fill:#EEBB33; font-size:54px; font-weight:bold;} /* color for scalar bosons */
	.st46 {fill:#77AADD; font-size:54px; font-weight:bold;} /* color for tensor bosons */
	.st46b{fill:#77AADD; font-size:36px; font-weight:bold;} /* color for hypothetical bosons */
	
	.st50 { fill:url(#lgp_quark2); } 
	.st51 { fill:#EE775E; fill-opacity:0.25; }
	.st52 { fill:url(#lgp_lepton2); }  
	.st55 { fill:#FF6C6C; font-size:21px; font-weight:bold;} /* color for gauge bosons */	
  </style>
    
  <defs>
  
    <linearGradient id="lgb_quark" gradientUnits="userSpaceOnUse" x1="45" y1="-15" x2="200" y2="250">
      <stop offset="0" stop-color="#EEBBFF" />
      <stop offset="1" stop-color="#AA77DD" />
    </linearGradient>

    <linearGradient id="lgb_lepton" gradientUnits="userSpaceOnUse" x1="45" y1="-15" x2="200" y2="250">
      <stop offset="0" stop-color="#AAEE77" />
      <stop offset="1" stop-color="#66CC33" />
    </linearGradient>

    <linearGradient id="lgb_gauge" gradientUnits="userSpaceOnUse" x1="45" y1="-15" x2="200" y2="250">
      <stop offset="0" stop-color="#FF9977" />
      <stop offset="1" stop-color="#DD5544" />
    </linearGradient>

    <linearGradient id="lgb_scalar" gradientUnits="userSpaceOnUse" x1="45" y1="-15" x2="200" y2="250">
      <stop offset="0" stop-color="#EEE677" />
      <stop offset="1" stop-color="#EEBB33" />
    </linearGradient>
	
    <linearGradient id="lgb_tensor" gradientUnits="userSpaceOnUse" x1="45" y1="-15" x2="200" y2="250">
      <stop offset="0" stop-color="#99CCFF" />
      <stop offset="1" stop-color="#6699CC" />
    </linearGradient>


    <linearGradient id="lgp_quark" gradientUnits="userSpaceOnUse" x1="120" y1="60" x2="165" y2="140">
      <stop offset="0" stop-color="#EEBBFF" />
      <stop offset="1" stop-color="#AA77DD" />
    </linearGradient>

    <linearGradient id="lgp_lepton" gradientUnits="userSpaceOnUse" x1="120" y1="60" x2="165" y2="140">
      <stop offset="0" stop-color="#AAEE77" />
      <stop offset="1" stop-color="#66CC33" />
    </linearGradient>

    <linearGradient id="lgp_gauge" gradientUnits="userSpaceOnUse" x1="120" y1="60" x2="165" y2="140">
      <stop offset="0" stop-color="#FF9977" />
      <stop offset="1" stop-color="#DD5544" />
    </linearGradient>

    <linearGradient id="lgp_scalar" gradientUnits="userSpaceOnUse" x1="120" y1="60" x2="165" y2="140">
       <stop offset="0" stop-color="#EEE677" />
       <stop offset="1" stop-color="#EEBB33" />
    </linearGradient>
	
	<linearGradient id="lgp_tensor" gradientUnits="userSpaceOnUse" x1="120" y1="60" x2="165" y2="140">
       <stop offset="0" stop-color="#99CCFF" />
       <stop offset="1" stop-color="#6699CC" />
    </linearGradient>
    
	
	<linearGradient id="lgp_quark2" gradientUnits="userSpaceOnUse" x1="-25" y1="-45" x2="25" y2="45">
      <stop offset="0" stop-color="#EEBBFF" />
      <stop offset="1" stop-color="#AA77DD" />
    </linearGradient>
	<linearGradient id="lgp_lepton2" gradientUnits="userSpaceOnUse" x1="-25" y1="-45" x2="25" y2="45">
      <stop offset="0" stop-color="#AAEE77" />
      <stop offset="1" stop-color="#66CC33" />
    </linearGradient>
	
    <g id="spiral">
    <path d="M -21.2752840981559 -6.2927353865046 L -21.6645292269908 -5.37132034355964
C -20.9466991411009 -4.96649831220389 -20.3002525316942 -4.38071187457698 -19.7573593128807 -3.65685424949238 C -18.6715728752538 -2.20913899932317 -18 -0.209138999323174 -18 2
C -18 4.20913899932317 -18.8954305003384 6 -20 6 C -20.2761423749154 6 -20.5 6.2238576250846 -20.5 6.5 C -20.5 6.7761423749154 -20.2761423749154 7 -20 7
C -18.3431457505076 7 -17 4.76142374915397 -17 2 C -17 -0.48528137423857 -17.7835016877961 -2.73528137423857 -19.0502525316942 -4.36396103067893
C -19.6836279536432 -5.17830085889911 -20.4378156646177 -5.83731060122937 -21.2752840981559 -6.2927353865046 Z" stroke="none" fill="#DD5544" fill-opacity="1" />
    <path d="M -16 -7 C -19.8659932488156 -7 -23 -2.97056274847714 -23 2 C -23 4.76142374915397 -21.6568542494924 7 -20 7 C -19.7238576250846 7 -19.5 6.7761423749154 -19.5 6.5
C -19.5 6.2238576250846 -19.7238576250846 6 -20 6 C -21.1045694996616 6 -22 4.20913899932317 -22 2 C -22 -2.41827799864635 -19.3137084989848 -6 -16 -6
C -12.6862915010152 -6 -10 -2.41827799864635 -10 2 C -10 4.20913899932317 -10.8954305003384 6 -12 6 C -12.2761423749154 6 -12.5 6.2238576250846 -12.5 6.5
C -12.5 6.7761423749154 -12.2761423749154 7 -12 7 C -10.3431457505076 7 -9 4.76142374915397 -9 2 C -9 -2.97056274847714 -12.1340067511844 -7 -16 -7 Z" stroke="none" fill="#DD5544" fill-opacity="1" />
    <path d="M -8 -7 C -11.8659932488156 -7 -15 -2.97056274847714 -15 2 C -15 4.76142374915397 -13.6568542494924 7 -12 7 C -11.7238576250846 7 -11.5 6.7761423749154 -11.5 6.5
C -11.5 6.2238576250846 -11.7238576250846 6 -12 6 C -13.1045694996616 6 -14 4.20913899932317 -14 2 C -14 -2.41827799864635 -11.3137084989848 -6 -8 -6
C -4.68629150101524 -6 -2 -2.41827799864635 -2 2 C -2 4.20913899932317 -2.89543050033841 6 -4 6 C -4.2761423749154 6 -4.5 6.2238576250846 -4.5 6.5
C -4.5 6.7761423749154 -4.2761423749154 7 -4 7 C -2.34314575050762 7 -1 4.76142374915397 -1 2 C -1 -2.97056274847714 -4.13400675118445 -7 -8 -7 Z" stroke="none" fill="#DD5544" fill-opacity="1" />
    <path d="M 0 -7 C -3.86599324881555 -7 -7 -2.97056274847714 -7 2 C -7 4.76142374915397 -5.65685424949238 7 -4 7 C -3.7238576250846 7 -3.5 6.7761423749154 -3.5 6.5
C -3.5 6.2238576250846 -3.7238576250846 6 -4 6 C -5.10456949966159 6 -6 4.20913899932317 -6 2 C -6 -2.41827799864635 -3.31370849898476 -6 0 -6
C 3.31370849898476 -6 6 -2.41827799864635 6 2 C 6 4.20913899932317 5.10456949966159 6 4 6 C 3.7238576250846 6 3.5 6.2238576250846 3.5 6.5
C 3.5 6.7761423749154 3.7238576250846 7 4 7 C 5.65685424949238 7 7 4.76142374915397 7 2 C 7 -2.97056274847714 3.86599324881555 -7 0 -7 Z" stroke="none" fill="#DD5544" fill-opacity="1" />
    <path d="M 8 -7 C 4.13400675118445 -7 1 -2.97056274847714 1 2 C 1 4.76142374915397 2.34314575050762 7 4 7 C 4.2761423749154 7 4.5 6.7761423749154 4.5 6.5
C 4.5 6.2238576250846 4.2761423749154 6 4 6 C 2.89543050033841 6 2 4.20913899932317 2 2 C 2 -2.41827799864635 4.68629150101524 -6 8 -6
C 11.3137084989848 -6 14 -2.41827799864635 14 2 C 14 4.20913899932317 13.1045694996616 6 12 6 C 11.7238576250846 6 11.5 6.2238576250846 11.5 6.5
C 11.5 6.7761423749154 11.7238576250846 7 12 7 C 13.6568542494924 7 15 4.76142374915397 15 2 C 15 -2.97056274847714 11.8659932488156 -7 8 -7 Z" stroke="none" fill="#DD5544" fill-opacity="1" />
    <path d="M 16 -7 C 12.1340067511844 -7 9 -2.97056274847714 9 2 C 9 4.76142374915397 10.3431457505076 7 12 7 C 12.2761423749154 7 12.5 6.7761423749154 12.5 6.5
C 12.5 6.2238576250846 12.2761423749154 6 12 6 C 10.8954305003384 6 10 4.20913899932317 10 2 C 10 -2.41827799864635 12.6862915010152 -6 16 -6
C 19.3137084989848 -6 22 -2.41827799864635 22 2 C 22 4.20913899932317 21.1045694996616 6 20 6 C 19.7238576250846 6 19.5 6.2238576250846 19.5 6.5
C 19.5 6.7761423749154 19.7238576250846 7 20 7 C 21.6568542494924 7 23 4.76142374915397 23 2 C 23 -2.97056274847714 19.8659932488156 -7 16 -7 Z" stroke="none" fill="#DD5544" fill-opacity="1" />
    <path d="M 21.2752840981559 -6.2927353865046 C 20.4378156646177 -5.83731060122937 19.6836279536432 -5.17830085889911 19.0502525316942 -4.36396103067893
C 17.7835016877961 -2.73528137423857 17 -0.48528137423857 17 2 C 17 4.76142374915397 18.3431457505076 7 20 7 C 20.2761423749154 7 20.5 6.7761423749154 20.5 6.5
C 20.5 6.2238576250846 20.2761423749154 6 20 6 C 18.8954305003384 6 18 4.20913899932317 18 2
C 18 -0.209138999323174 18.6715728752538 -2.20913899932317 19.7573593128807 -3.65685424949238
C 20.3002525316942 -4.38071187457698 20.9466991411009 -4.96649831220389 21.6645292269908 -5.37132034355964 L 21.2752840981559 -6.2927353865046 Z" stroke="none" fill="#DD5544" fill-opacity="1" />
  </g>
	
    <g id="box">
      <rect x="5" y="5" width="230" height="230" fill="none" stroke-width="10" rx="25" ry="25" />
    </g>
	
	<g id="deuteriumbox">
      <rect x="5" y="5" width="990" height="995" fill="none" stroke-width="10" rx="25" ry="25" />
    </g>
    
    <g id="ball">
      <circle cx="120" cy="100" r="50.4" class="st1"></circle>
      <circle cx="120" cy="100" r="47.7" class="st1"></circle>
      <circle cx="120" cy="100" r="45" />
    </g>
      
    <g id="tilequ">
      <use xlink:href="#box" stroke="url(#lgb_quark)" />
      <use xlink:href="#ball" class="st20" />
    </g>
    
    <g id="tilele">
      <use xlink:href="#box" stroke="url(#lgb_lepton)" />
      <use xlink:href="#ball" class="st26" />
    </g>
    
    <g id="tilegb">
      <use xlink:href="#box" stroke="url(#lgb_gauge)" />
      <use xlink:href="#ball" class="st32" />
    </g>
    
    <g id="tilesb">
      <use xlink:href="#box" stroke="url(#lgb_scalar)" />
      <use xlink:href="#ball" class="st36" />
    </g>

    <g id="tiletb">
      <use xlink:href="#box" stroke="url(#lgb_tensor)" />
      <use xlink:href="#ball" class="st37" />
    </g>
	
	
	<radialGradient id="orbital"> 
      <stop offset="0%" stop-color="#88DD55"/> 
      <stop offset="100%" stop-color="#88DD55" stop-opacity="0"/> 
    </radialGradient>
	
  </defs>

  <text class="head1" x="50%" y="95">Standard Model of Elementary Particles + Gravity</text>
  
  <g transform="translate(100 1300)">
  <title>Deuterium orbital</title>	
	<g transform="translate(500 495)">
	  <circle cx="0" cy="0" r="500" fill="none" stroke-width="500" style="stroke:url(#orbital);" />
	</g>
  </g>
  
  <g transform="translate(-20 0)" >
    <title>Forces</title>
    <path
       id="fstrong" class="st0"
       d="M240.8,322.6c-30.4,0-55,24.6-55,55v250c0,30.4,24.6,55,55,55h500c30.4,0,55-24.6,55-55  c0-107.7,87.3-195,195-195h10c30.4,0,55-24.6,55-55c0-30.4-24.6-55-55-55H240.8" />
    <path
       id="felecmag" class="st0"
       d="M240.8,312.6c-35.9,0-65,29.1-65,65v510c0,35.9,29.1,65,65,65h500c35.9,0,65-29.1,65-65  c0-107.7,82.8-195,185-195h10c35.9,0,65-29.1,65-65c0-35.9-29.1-65-65-65h-10c-102.2,0-185-82.8-185-185c0-35.9-29.1-65-65-65H240.8" />
    <path
       id="fweak" class="st0"
       d="M240.8,302.6c-41.4,0-75,33.6-75,75v760c0,41.4,33.6,75,75,75h760c41.4,0,75-33.6,75-75v-250  c0-41.4-33.6-75-75-75h-10c-96.6,0-175-78.4-175-175v-260c0-41.4-33.6-75-75-75H240.8" />
  </g>
  
  <g>
    <title>Fermions</title>
    <rect class="st2" x="100" y="137.6" width="740" height="80" rx="30" ry="30" />
    <text x="470" y="166" font-size="30" font-weight="bold" text-anchor="middle">three generations of matter<tspan x="470" dy="36px">(elementary fermions)</tspan></text>
    <g class="st41" transform="translate(100 255)">
      <text x="120">I</text>
      <text x="370">II</text>
      <text x="620">III</text>
    </g>
  </g>
  
    <g>
    <title>Bosons</title>
    <rect class="st2" x="860" y="137.6" width="760" height="80" rx="30" ry="30" />
    <text x="1240" y="166" font-size="30" font-weight="bold" text-anchor="middle">interactions / force carriers<tspan x="1240" dy="36px">(elementary bosons)</tspan></text>
  </g>
  
  <g transform="translate(85 15)" class="st39" font-size="24" text-anchor="end">
    <title>mass, charge, spin</title>
    <text y="300">mass</text>
    <text y="340">charge</text>
    <text y="380">spin</text>
  </g>     
 
  <g>
    <title>Quarks</title>
    <text class="st43" transform="translate(70 770) rotate(-90)">QUARKS</text>
  
    <g transform="translate(100 275)">
      <title>up</title>
      
      <use xlink:href="#tilequ" />
      <text class="psymr" x="120" y="120">u</text>
      
      <text class="pmass" x="015" y="40">&#8771;2.2 MeV/c&#178;</text>
      <text class="pchar" x="015" y="80">&#8532;</text>
      <text class="pspin" x="015" y="120">&#189;</text>
      <text class="pname" x="120" y="200">up</text>
    </g>
    
    <g transform="translate(100 525)">
      <title>down</title>
      
      <use xlink:href="#tilequ" />
      <text class="psymr" x="120" y="120">d</text>
      
      <text class="pmass" x="015" y="40">&#8771;4.7 MeV/c&#178;</text>
      <text class="pchar" x="015" y="80">−&#8531;</text>
      <text class="pspin" x="015" y="120">&#189;</text>
      <text class="pname" x="120" y="200">down</text>
    </g>
    
    <g transform="translate(350 275)">
      <title>charm</title>
      
      <use xlink:href="#tilequ" />
      <text class="psymr" x="120" y="120">c</text>
      
      <text class="pmass" x="015" y="40">&#8771;1.28 GeV/c&#178;</text>
      <text class="pchar" x="015" y="80">&#8532;</text>
      <text class="pspin" x="015" y="120">&#189;</text>
      <text class="pname" x="120" y="200">charm</text>
    </g>
    
    <g transform="translate(350 525)">
      <title>strange</title>
      
      <use xlink:href="#tilequ" />
      <text class="psymr" x="120" y="120">s</text>
      
      <text class="pmass" x="015" y="40">&#8771;96 MeV/c&#178;</text>
      <text class="pchar" x="015" y="80">−&#8531;</text>
      <text class="pspin" x="015" y="120">&#189;</text>
      <text class="pname" x="120" y="200">strange</text>
    </g>
    
    <g transform="translate(600 275)">
      <title>top</title>
      
      <use xlink:href="#tilequ" />
      <text class="psymr" x="120" y="120">t</text>
      
      <text class="pmass" x="015" y="40">&#8771;173.1 GeV/c&#178;</text>
      <text class="pchar" x="015" y="80">&#8532;</text>
      <text class="pspin" x="015" y="120">&#189;</text>
      <text class="pname" x="120" y="200">top</text>
    </g>
    
    <g transform="translate(600 525)">
      <title>bottom</title>
      
      <use xlink:href="#tilequ" />
      <text class="psymr" x="120" y="120">b</text>
      
      <text class="pmass" x="015" y="40">&#8771;4.18 GeV/c&#178;</text>
      <text class="pchar" x="015" y="80">−&#8531;</text>
      <text class="pspin" x="015" y="120">&#189;</text>
      <text class="pname" x="120" y="200">bottom</text>
    </g>
  </g>
  
  <g>
    <title>Leptons</title>
    <text class="st42" transform="translate(70 1270) rotate(-90)">LEPTONS</text>
  
    <g transform="translate(100 790)">
      <title>electron</title>
      
      <use xlink:href="#tilele" />
      <text class="psymr" x="120" y="120">e</text>
      
      <text class="pmass" x="015" y="40">&#8771;0.511 MeV/c&#178;</text>
      <text class="pchar" x="015" y="80">−1</text>
      <text class="pspin" x="015" y="120">&#189;</text>
      <text class="pname" x="120" y="200">electron</text>
    </g>
    
    <g transform="translate(100 1040)">
      <title>electron neutrino</title>
      
      <use xlink:href="#tilele" />
      <text class="psymg" x="120" y="110">ν<tspan class="sub">e</tspan></text>
      
      <text class="pmass" x="015" y="40">&lt;2.2 eV/c&#178;</text>
      <text class="pchar" x="015" y="80">0</text>
      <text class="pspin" x="015" y="120">&#189;</text>
      <text class="pnam2" x="120" y="200"><tspan dy="-20">electron</tspan><tspan x="120" dy="40">neutrino</tspan></text>
    </g>
    
    <g transform="translate(350 790)">
      <title>muon</title>
      
      <use xlink:href="#tilele" />
      <text class="psymg" x="120" y="120">μ</text>
      
      <text class="pmass" x="015" y="40">&#8771;105.66 MeV/c&#178;</text>
      <text class="pchar" x="015" y="80">−1</text>
      <text class="pspin" x="015" y="120">&#189;</text>
      <text class="pname" x="120" y="200">muon</text>
    </g>
    
    <g transform="translate(350 1040)">
      <title>muon neutrino</title>
      
      <use xlink:href="#tilele" />
      <text class="psymg" x="120" y="110">ν<tspan class="sub">μ</tspan></text>
      
      <text class="pmass" x="015" y="40">&lt;0.17 MeV/c&#178;</text>
      <text class="pchar" x="015" y="80">0</text>
      <text class="pspin" x="015" y="120">&#189;</text>
      <text class="pnam2" x="120" y="200"><tspan dy="-20">muon</tspan><tspan x="120" dy="40">neutrino</tspan></text>
    </g>
    
    <g transform="translate(600 790)">
      <title>tau</title>
      
      <use xlink:href="#tilele" />
      <text class="psymg" x="120" y="120">τ</text>
      
      <text class="pmass" x="015" y="40">&#8771;1.7768 GeV/c&#178;</text>
      <text class="pchar" x="015" y="80">−1</text>
      <text class="pspin" x="015" y="120">&#189;</text>
      <text class="pname" x="120" y="200">tau</text>
    </g>
    
    <g transform="translate(600 1040)">
      <title>tau neutrino</title>
      
      <use xlink:href="#tilele" />
      <text class="psymg" x="120" y="110">ν<tspan class="sub">τ</tspan></text>
      
      <text class="pmass" x="015" y="40">&lt;18.2 MeV/c&#178;</text>
      <text class="pchar" x="015" y="80">0</text>
      <text class="pspin" x="015" y="120">&#189;</text>
      <text class="pnam2" x="120" y="200"><tspan dy="-20">tau</tspan><tspan x="120" dy="40">neutrino</tspan></text>
    </g>
  </g>
  
  <g>
    <title>Gauge Bosons</title>
    <text class="st44" transform="translate(1170 1270) rotate(-90)">GAUGE BOSONS</text>
	<text class="st44b" transform="translate(1210 1270) rotate(-90)">VECTOR BOSONS</text>
  
    <g transform="translate(860 275)">
      <title>gluon</title>
      
      <use xlink:href="#tilegb" />
      <text class="psymr" x="120" y="120">g</text>
      
      <text class="pmass" x="015" y="40">0</text>
      <text class="pchar" x="015" y="80">0</text>
      <text class="pspin" x="015" y="120">1</text>
      <text class="pname" x="120" y="200">gluon</text>
    </g>
    
    <g transform="translate(860 525)">
      <title>photon</title>

      <use xlink:href="#tilegb" />
      <text class="psymg" x="120" y="120">γ</text>

      <text class="pmass" x="015" y="40">0</text>
      <text class="pchar" x="015" y="80">0</text>
      <text class="pspin" x="015" y="120">1</text>
      <text class="pname" x="120" y="200">photon</text>
    </g>
    
    <g transform="translate(860 790)">
      <title>Z boson</title>

      <use xlink:href="#tilegb" />
      <text class="psymr" x="120" y="125">Z</text>

      <text class="pmass" x="015" y="40">&#8771;91.19 GeV/c&#178;</text>
      <text class="pchar" x="015" y="80">0</text>
      <text class="pspin" x="015" y="120">1</text>
      <text class="pname" x="120" y="200">Z boson</text>
    </g>
    
    <g transform="translate(860 1040)">
      <title>W boson</title>
 
      <use xlink:href="#tilegb" />
      <text class="psymr" x="120" y="125">W</text>

      <text class="pmass" x="015" y="40">&#8771;80.39 GeV/c&#178;</text>
      <text class="pchar" x="015" y="80">&#177;1</text>
      <text class="pspin" x="015" y="120">1</text>
      <text class="pname" x="120" y="200">W boson</text>
    </g>
  </g>
  
  <g>
    <title>Scalar Bosons</title>
    <text class="st45" transform="translate(1350 530) rotate(-90)" text-anchor="end">SCALAR BOSONS</text>

    <g transform="translate(1120 275)">
      <title>Higgs</title>
      
      <use xlink:href="#tilesb" />
      <text class="psymr" x="120" y="125">H</text>
      
      <text class="pmass" x="015" y="40">&#8771;124.97 GeV/c&#178;</text>
      <text class="pchar" x="015" y="80">0</text>
      <text class="pspin" x="015" y="120">0</text>
      <text class="pname" x="120" y="200">higgs</text>
    </g>
  </g>
  
  <g>
    <title>Tensor Bosons</title>
    <text class="st46" transform="translate(1610 530) rotate(-90)" text-anchor="end">TENSOR BOSONS</text>
    <text class="st46b" transform="translate(1555 530) rotate(-90)" text-anchor="end">HYPOTHETICAL</text>

    <g transform="translate(1380 275)">
      <title>Graviton</title>
      
      <use xlink:href="#tiletb" />
      <text class="psymr" x="120" y="125">G</text>
      
      <text class="pmass" x="015" y="40">0</text>
      <text class="pchar" x="015" y="80">0</text>
      <text class="pspin" x="015" y="120">2</text>
      <text class="pname" x="120" y="200">graviton</text>
    </g>
  </g>

  <text class="st45" transform="translate(70 2300) rotate(-90)">DEUTERIUM</text>
  
  <g transform="translate(100 1300)">
    <title>Deuterium</title>
	
    <use xlink:href="#deuteriumbox" stroke="url(#lgb_scalar)" />
	<!-- width="1510" height="995" -->
    <g transform="translate(500 495)">
	  <title>Nucleus</title>
      <g transform="translate(-123 0)">
	    <title>Proton</title>
		<circle cx="0" cy="0" r="123" style="fill:#EEBBFF;fill-opacity:0.4;" />		
		
		<g transform="translate(-67.5 -38.9711431702997)">
        <circle cx="0" cy="0" r="45" class="st50"/>
		<text class="psymr" x="0" y="15">u</text>
		</g>
		<g transform="translate(67.5 -38.9711431702997)">
        <circle cx="0" cy="0" r="45" class="st50" />
		<text class="psymr" x="0" y="15">u</text>
		</g>
		<g transform="translate(0 77.9422863405995)">
        <circle cx="0" cy="0" r="45" class="st50" />
		<text class="psymr" x="0" y="20">d</text>
		</g>
	  
	    <circle cx="0" cy="-38.9711431702997" r="22.5" class="st51" />
	    <circle cx="-33.75" cy="19.4855715851499" r="22.5" class="st51" />
	    <circle cx="33.75" cy="19.4855715851499" r="22.5" class="st51" />
		
		<use xlink:href="#spiral" transform="translate(0 -38.9711431702997)"/>
		<use xlink:href="#spiral" transform="translate(-33.75 19.4855715851499) rotate(60)"/>
		<use xlink:href="#spiral" transform="translate(33.75 19.4855715851499) rotate(120)"/>
		
		<text class="pname" x="0" y="-130">proton</text>
	  </g>
      <g transform="translate(123 0)">
	    <title>Neutron</title>
		<circle cx="0" cy="0" r="123" style="fill:#DDDDDD;fill-opacity:0.45;" />
		
		<g transform="translate(-67.5 38.9711431702997)">
        <circle cx="0" cy="0" r="45" class="st50" />
		<text class="psymr" x="0" y="20">d</text>
		</g>
		<g transform="translate(67.5 38.9711431702997)">
        <circle cx="0" cy="0" r="45" class="st50" />
		<text class="psymr" x="0" y="20">d</text>
		</g>
		<g transform="translate(0 -77.9422863405995)">
        <circle cx="0" cy="0" r="45" class="st50"/>
		<text class="psymr" x="0" y="15">u</text>
		</g>
	  
	    <circle cx="0" cy="38.9711431702997" r="22.5" class="st51" />
	    <circle cx="-33.75" cy="-19.4855715851499" r="22.5" class="st51" />
	    <circle cx="33.75" cy="-19.4855715851499" r="22.5" class="st51" />
		
        <use xlink:href="#spiral" transform="translate(0 38.9711431702997)"/>
		<use xlink:href="#spiral" transform="translate(-33.75 -19.4855715851499) rotate(-60)"/>
		<use xlink:href="#spiral" transform="translate(33.75 -19.4855715851499) rotate(-120)"/>

		<text class="pname" x="0" y="145">neutron</text>
	  </g>
	  <g>
	    <title>Electron</title>
		<g transform="translate(350 -200)">
		<circle cx="0" cy="0" r="45" class="st52" />
		<text class="psymr" x="0" y="15">e</text>
		<text class="pname" x="0" y="90">electron</text>
		</g>

	  </g>
	  <text class="st55" x="170" y="-25">gluons</text>
    </g>	
	
  </g>

</svg>